<svg width="683" height="683" viewBox="0 0 683 683" fill="none" xmlns="http://www.w3.org/2000/svg">
<path fill-rule="evenodd" clip-rule="evenodd" d="M270.98 430.716L270.959 237.453L455.497 334.418L270.98 430.716ZM676.17 203.963C676.17 203.963 669.489 156.567 649.021 135.695C623.045 108.288 593.932 108.159 580.593 106.569C485.015 99.6041 341.649 99.6042 341.649 99.6042H341.351C341.351 99.6042 197.985 99.6041 102.407 106.569C89.0462 108.159 59.9547 108.288 33.958 135.695C13.4893 156.567 6.82994 203.963 6.82994 203.963C6.82994 203.963 0 259.636 0 315.287V367.477C0 423.15 6.82994 478.8 6.82994 478.8C6.82994 478.8 13.4893 526.197 33.958 547.069C59.9547 574.475 94.0831 573.616 109.28 576.474C163.92 581.762 341.5 583.396 341.5 583.396C341.5 583.396 485.015 583.181 580.593 576.217C593.932 574.604 623.045 574.475 649.021 547.069C669.489 526.197 676.17 478.8 676.17 478.8C676.17 478.8 683 423.15 683 367.477V315.287C683 259.636 676.17 203.963 676.17 203.963Z" fill="#CE1312"/>
<rect x="52" y="145" width="578" height="384" fill="#CE1312"/>
<path d="M176.465 245.818H228.134L262.332 339.781H264.676L329.768 245.818H381.437L278.525 386.869L265.634 464H219.825L232.715 386.869L176.465 245.818ZM370.411 464L406.632 245.818H452.762L422.932 425.967H516.469L510.077 464H370.411Z" fill="white"/>
</svg>
